<?xml version="1.0" encoding="UTF-8"?>
<svg version="1.1" xmlns="http://www.w3.org/2000/svg" width="2836" height="577">
<path d="M0 0 C1.68397216 -0.0037388 3.36794259 -0.00834124 5.05191028 -0.01373065 C9.67007056 -0.02594784 14.28815832 -0.02570168 18.90633106 -0.02334189 C23.89083786 -0.0229334 28.87532152 -0.03397607 33.8598175 -0.04345703 C43.6224958 -0.06006151 53.38514994 -0.06556635 63.14784117 -0.06668179 C71.08565407 -0.06763262 79.023459 -0.07174468 86.96126938 -0.07808304 C109.47613807 -0.09569474 131.9909877 -0.10492214 154.50586332 -0.10342209 C156.32608308 -0.10330222 156.32608308 -0.10330222 158.18307495 -0.10317993 C160.00552258 -0.10305729 160.00552258 -0.10305729 161.86478733 -0.10293217 C181.54866004 -0.10211952 201.23245618 -0.12125212 220.91630675 -0.14945666 C241.13707497 -0.17820142 261.35780587 -0.19199605 281.57859504 -0.19026911 C292.92713585 -0.18960571 304.27559642 -0.19507601 315.6241188 -0.21662521 C325.28794177 -0.23485802 334.95164812 -0.23916714 344.61548086 -0.22560637 C349.54280084 -0.21908707 354.46989725 -0.21892195 359.39719582 -0.23631287 C363.91524481 -0.25209478 368.43289389 -0.24912794 372.95093344 -0.2317446 C374.57812153 -0.22868592 376.20533984 -0.23226404 377.83249225 -0.24346475 C395.59500781 -0.35755564 411.39427662 3.81762679 424.73776245 16.27523804 C437.73850481 30.14632298 443.18362339 45.55698427 442.60494995 64.26742554 C441.71413632 63.94307998 440.8233227 63.61873442 439.90551472 63.2845602 C434.29780682 61.69822984 428.57895362 61.98169211 422.7959137 61.99327087 C421.50250228 61.9880342 420.20909087 61.98279752 418.87648517 61.97740215 C415.29728686 61.9632613 411.71817556 61.96155811 408.13895333 61.96199906 C404.27448182 61.96034742 400.41004579 61.94727457 396.54559326 61.93580627 C388.10139125 61.9129856 379.65721442 61.90503909 371.21298575 61.89997983 C365.93815281 61.89671994 360.66332714 61.89019576 355.38849831 61.88297844 C340.77671767 61.86341772 326.16494379 61.84700996 311.55314922 61.84410191 C310.61867792 61.84391434 309.68420662 61.84372677 308.72141801 61.84353351 C306.82712861 61.84316727 304.93283921 61.84280357 303.0385498 61.8424424 C301.62811099 61.84216818 301.62811099 61.84216818 300.18917847 61.84188843 C299.2477352 61.84170788 298.30629193 61.84152733 297.33632008 61.84134131 C282.07922172 61.83779912 266.82226444 61.81077156 251.56521501 61.77339054 C235.89166556 61.73529703 220.21818611 61.71594436 204.54458934 61.71564239 C195.7481227 61.71505812 186.95182447 61.70658542 178.15540123 61.67764473 C170.66604982 61.65311708 163.17692826 61.64585738 155.68754753 61.66089226 C151.86846426 61.6680551 148.04983476 61.66723122 144.23080254 61.64448166 C140.08518157 61.62002375 135.94059036 61.63454436 131.79493713 61.6526947 C129.9956461 61.63289475 129.9956461 61.63289475 128.16000575 61.6126948 C119.65276484 61.69769382 112.91931993 63.41282228 106.4633581 69.18079573 C101.00457601 74.76335399 98.56709629 81.01305974 98.22994995 88.76742554 C98.86943468 102.4571357 108.12829191 111.0382065 117.47994995 120.14633179 C120.10862063 122.77017035 122.50858432 125.55138634 124.92526245 128.36898804 C127.09759083 130.8242243 129.42288994 133.0982289 131.76193237 135.39315796 C133.53863393 137.19998507 135.199473 139.06105439 136.8510437 140.98226929 C140.51898618 145.20035471 144.32158757 149.27432352 148.16744995 153.32992554 C149.58046022 154.82578331 150.9932158 156.32188171 152.4057312 157.81820679 C153.10907593 158.56280151 153.81242065 159.30739624 154.53707886 160.07455444 C162.41245524 168.42598663 170.2208192 176.8398638 177.99655151 185.2840271 C182.00834842 189.6347745 186.0534396 193.95366825 190.10494995 198.26742554 C195.13620783 203.62434765 200.14289186 209.0022815 205.12106323 214.40853882 C210.64171554 220.40044387 216.206534 226.35093532 221.76998901 232.30307007 C223.69287969 234.36155575 225.61397389 236.42170554 227.53463745 238.48226929 C228.17417358 239.16821167 228.81370972 239.85415405 229.47262573 240.56088257 C230.70301579 241.88063948 231.93316909 243.20061716 233.16305542 244.52084351 C233.71622437 245.11397339 234.26939331 245.70710327 234.83932495 246.31820679 C235.32626831 246.84067993 235.81321167 247.36315308 236.31491089 247.90145874 C237.39216247 249.04211404 238.49554347 250.15801905 239.60494995 251.26742554 C240.0463562 253.52914429 240.0463562 253.52914429 239.60494995 256.26742554 C237.98161017 258.41071773 236.42449036 260.19080979 234.54244995 262.07992554 C233.43690814 263.23219919 232.33144292 264.38454634 231.2260437 265.53695679 C230.63678101 266.14233276 230.04751831 266.74770874 229.44039917 267.37142944 C226.2859248 270.62996203 223.20094944 273.95346514 220.10494995 277.26742554 C218.82515706 278.63085232 217.54521043 279.99413481 216.2651062 281.35726929 C213.00710773 284.83252424 209.76921769 288.32567962 206.54244995 291.82992554 C199.33979897 299.65195127 192.07496243 307.41564556 184.81393433 315.18344116 C178.74734386 321.67436146 172.68571397 328.16913528 166.66744995 334.70492554 C161.53623822 340.27738356 156.35767698 345.80439466 151.17160034 351.32577515 C147.29608238 355.45487333 143.43953424 359.60030278 139.60494995 363.76742554 C135.13291679 368.62727729 130.62573728 373.45290989 126.10494995 378.26742554 C124.83536699 379.62284585 123.56583522 380.97831412 122.2963562 382.33383179 C119.93840587 384.85057909 117.57086794 387.35763641 115.1947937 389.85726929 C102.12492141 403.60636786 102.12492141 403.60636786 98.29244995 421.61508179 C99.19165468 429.24708188 102.76229464 436.25181276 108.60494995 441.26742554 C114.2097785 444.81642894 119.33239201 446.39111642 125.96023846 446.39605999 C127.05295518 446.39928444 128.1456719 446.40250888 129.27150124 446.40583104 C130.47157762 446.40428244 131.67165399 446.40273383 132.90809631 446.40113831 C134.18331581 446.40340386 135.45853531 446.40566942 136.77239782 446.40800363 C140.31468397 446.41412868 143.85694655 446.4139872 147.3992368 446.41280925 C151.21873726 446.41260542 155.03823012 446.41812242 158.85772705 446.42286682 C166.34260181 446.43117831 173.82746869 446.43392191 181.31234767 446.4344792 C187.39722638 446.43495422 193.48210248 446.43700828 199.56698036 446.44017982 C216.81840451 446.44898855 234.06982244 446.45359898 251.32124885 446.45284935 C252.25155234 446.45280939 253.18185584 446.45276944 254.14035034 446.45272827 C255.53750978 446.45266695 255.53750978 446.45266695 256.96289466 446.45260439 C272.05267701 446.45219808 287.14243439 446.46176316 302.23220953 446.47586664 C317.72598142 446.4902334 333.21974114 446.49713662 348.71351987 446.49627286 C357.41212951 446.49594095 366.11071299 446.4986855 374.80931664 446.50945091 C382.21710104 446.51855996 389.62484742 446.52072791 397.032635 446.51394149 C400.81092653 446.51067804 404.58914515 446.51061321 408.36742973 446.51929474 C412.46730338 446.5286181 416.56700842 446.52237894 420.66688538 446.5146637 C422.45026952 446.52237904 422.45026952 446.52237904 424.26968163 446.53025025 C430.70062486 446.5035042 436.38523222 445.92632363 442.60494995 444.26742554 C443.66913402 460.14150463 439.15522064 474.85788298 428.76559448 486.94613647 C418.52150054 498.35683024 405.9526156 506.00859024 390.60494995 508.26742554 C385.15861854 508.56026913 379.718082 508.54214913 374.26600647 508.52812195 C372.6003702 508.53114506 370.93473531 508.53503534 369.26910287 508.53971452 C364.70634452 508.54998276 360.14366485 508.54781568 355.58090007 508.54353392 C350.65439375 508.54106456 345.72790626 508.5500835 340.80140686 508.55757141 C331.15517191 508.57031476 321.50896479 508.57211254 311.86272284 508.56977115 C304.02074083 508.56798736 296.17876727 508.56973895 288.33678627 508.57399559 C287.22022441 508.57459078 286.10366256 508.57518597 284.95326549 508.57579919 C282.68488007 508.57701096 280.41649465 508.57822509 278.14810923 508.57944157 C256.87922668 508.59031579 235.61035998 508.58815522 214.34147654 508.58205672 C194.89235739 508.57688816 175.44328833 508.58814163 155.99417909 508.60715494 C136.01521224 508.62653624 116.03626908 508.6347888 96.05729276 508.63103169 C84.84410377 508.62912003 73.63095742 508.6316038 62.41777611 508.64574623 C52.87141212 508.65766472 43.325117 508.65905966 33.77875205 508.64695606 C28.91044252 508.64107059 24.04225894 508.63995882 19.17395782 508.65195847 C14.71223878 508.66282791 10.25075068 508.65970127 5.78904239 508.64569678 C4.18009116 508.64305277 2.57112177 508.64540703 0.96218839 508.65343264 C-11.34879989 508.71055053 -22.51059054 507.33279339 -33.58255005 501.57992554 C-34.6036084 501.05338379 -34.6036084 501.05338379 -35.64529419 500.51620483 C-51.38890305 492.11197608 -59.73665597 478.1464938 -64.94134873 461.52252907 C-65.55778175 458.45857437 -65.52475113 455.53430999 -65.52927113 452.40842533 C-65.53162336 451.7154715 -65.53397559 451.02251766 -65.5363991 450.30856523 C-65.54308181 447.97526133 -65.54263109 445.64201322 -65.54222107 443.30870056 C-65.54552016 441.62334433 -65.54924583 439.93798889 -65.55336255 438.25263447 C-65.56338577 433.61212339 -65.56709987 428.97162524 -65.56975186 424.33110487 C-65.57365403 419.32951089 -65.58323253 414.32792716 -65.59196472 409.32633972 C-65.61173303 397.24181819 -65.62179644 385.15729582 -65.63069251 373.07276216 C-65.63507537 367.3816724 -65.64044224 361.69058358 -65.64568138 355.99949455 C-65.66269509 337.07978922 -65.67718869 318.16008447 -65.68443012 299.24037266 C-65.68634002 294.3298753 -65.68826035 289.41937795 -65.69021606 284.50888062 C-65.6906998 283.2884006 -65.69118354 282.06792059 -65.69168194 280.81045633 C-65.69998008 261.04482607 -65.72531271 241.27925638 -65.75779674 221.51365257 C-65.79087725 201.21956924 -65.80887984 180.92551668 -65.81207436 160.63140625 C-65.81423869 149.23756051 -65.8229759 137.84380305 -65.84853554 126.4499836 C-65.87025616 116.74505176 -65.87828627 107.04022964 -65.86856876 97.33527625 C-65.86402785 92.3858259 -65.86589816 87.43660185 -65.8853302 82.48718262 C-65.90298975 77.94991289 -65.90194152 73.41303411 -65.88643291 68.87576007 C-65.88406106 67.24039194 -65.88835831 65.60499654 -65.90026156 63.96967001 C-66.02909175 45.09032305 -60.6824391 29.63861992 -47.3286438 16.00180054 C-33.78543496 2.91318262 -18.05973105 -0.03795114 0 0 Z " fill="#FFFFFF" transform="translate(65.39505004882813,-0.267425537109375)"/>
<path d="M0 0 C38.7951421 -0.27479086 77.59013735 -0.4861783 116.38605608 -0.61278395 C120.96839119 -0.62779206 125.55072439 -0.64332396 130.13305664 -0.65917969 C131.04529935 -0.66232741 131.95754205 -0.66547514 132.89742848 -0.66871825 C147.65984204 -0.72090501 162.42169366 -0.81550287 177.18377409 -0.92583355 C192.33612842 -1.03813484 207.48818887 -1.10472254 222.64094228 -1.12906194 C231.98802859 -1.14551114 241.33352655 -1.19741881 250.68012377 -1.2949976 C257.09340511 -1.35853331 263.50586791 -1.37757882 269.91944096 -1.36201653 C273.61800385 -1.35434449 277.31379637 -1.36592034 281.01186371 -1.4304657 C304.3453606 -1.81800503 304.3453606 -1.81800503 310.11829185 2.62506866 C312.98174961 5.40961163 314.98562972 8.55432891 317 12 C318.17747119 13.34232058 319.38417907 14.660959 320.64453125 15.92578125 C321.16869629 16.48668457 321.69286133 17.04758789 322.23291016 17.62548828 C322.7541748 18.18220215 323.27543945 18.73891602 323.8125 19.3125 C325.00390841 20.58723756 326.1953146 21.86197721 327.38671875 23.13671875 C328.59113459 24.42448968 329.79556168 25.71225009 331 27 C338.15320041 34.65122034 345.29604933 42.31092626 352.39111328 50.01611328 C356.40312184 54.36697839 360.44833201 58.68607486 364.5 63 C369.53125788 68.35692211 374.53794191 73.73485596 379.51611328 79.14111328 C385.64388585 85.79196347 391.82450349 92.39349828 398 99 C405.14867394 106.64759993 412.29488631 114.29661483 419.37792969 122.00512695 C422.18555823 125.05480853 425.01693391 128.07971464 427.87109375 131.0859375 C428.53568604 131.7879126 429.20027832 132.4898877 429.88500977 133.21313477 C431.16976605 134.56850457 432.45778874 135.92078906 433.74975586 137.26928711 C441.83476838 145.80923879 447.99398543 153.20884424 448.4375 165.3125 C448.0370636 177.72602855 443.16799594 184.7450822 434.62548828 193.34619141 C431.70668232 196.3158507 428.89433213 199.38522818 426.0625 202.4375 C424.86498489 203.71912532 423.66707002 205.00037724 422.46875 206.28125 C419.31896598 209.65353532 416.18764455 213.0423919 413.0625 216.4375 C407.93139971 222.01005943 402.75272578 227.53697045 397.56665039 233.05834961 C393.69113243 237.18744779 389.83458429 241.33287724 386 245.5 C381.52797386 250.35984412 377.02150158 255.18616241 372.5 260 C367.95852164 264.83540289 363.43106379 269.68252293 358.9375 274.5625 C351.73484902 282.38452573 344.47001248 290.14822002 337.20898438 297.91601562 C330.98169375 304.57887631 324.75794615 311.244998 318.5625 317.9375 C318.10278809 318.43266113 317.64307617 318.92782227 317.16943359 319.43798828 C316.72293457 319.92122559 316.27643555 320.40446289 315.81640625 320.90234375 C315.38355098 321.35840641 314.95069571 321.81446908 314.50472361 322.28435183 C312.94539021 323.99074259 312.94539021 323.99074259 311.63171238 326.01868391 C309.24026284 329.32620259 307.36882789 331.62027232 303.34961426 332.7352457 C300.05605073 333.00968901 296.84583599 333.02783911 293.54127502 332.96203613 C292.28572703 332.96887153 291.03017903 332.97570693 289.73658413 332.98274946 C286.26277297 333.00059278 282.79094438 332.96870907 279.31738579 332.92852497 C275.56764639 332.89391787 271.81801523 332.90567233 268.06816101 332.91174316 C261.57515107 332.91593436 255.08278515 332.89087411 248.58993721 332.84584045 C239.20253111 332.78077292 229.81543583 332.75998382 220.42782866 332.74993652 C205.19658237 332.73243535 189.96567918 332.67921756 174.73461914 332.60351562 C159.94069127 332.53006288 145.14685665 332.47344567 130.3527832 332.43945312 C128.98451083 332.43630044 128.98451083 332.43630044 127.58859659 332.43308407 C123.01236581 332.42264363 118.43613438 332.412534 113.8599025 332.40258884 C75.90636145 332.31967959 37.95320339 332.17879606 0 332 C2.34492272 327.93124449 4.86147144 324.95771402 8.25 321.6875 C12.09865127 317.96387553 15.67128924 314.13165395 19.17431641 310.08178711 C22.21384944 306.61587401 25.3908374 303.28213379 28.5625 299.9375 C29.97551027 298.44164222 31.38826585 296.94554383 32.80078125 295.44921875 C33.50412598 294.70462402 34.2074707 293.9600293 34.93212891 293.19287109 C42.83161695 284.81586973 50.66398391 276.37614933 58.46630859 267.90869141 C65.20518072 260.60027446 72.00252163 253.34626639 78.79101562 246.08398438 C84.8576061 239.59306408 90.91923598 233.09829025 96.9375 226.5625 C101.43106526 221.68252133 105.95866927 216.83554322 110.5 212 C117.03852147 205.03485396 123.5476746 198.04508421 130 191 C130.7115625 190.24074219 131.423125 189.48148438 132.15625 188.69921875 C138.20130505 182.10344894 141.54606326 175.78769343 142.25 166.8125 C141.3713346 153.41285258 134.23415729 144.81781854 124.87890625 135.87109375 C122.02210736 133.09618876 119.44435809 130.11058743 116.84106445 127.09936523 C113.75761714 123.5833112 110.53106933 120.20447089 107.3125 116.8125 C102.49261397 111.71297514 97.68618535 106.60343727 92.9375 101.4375 C88.48712239 96.59768583 84.00156081 91.79224049 79.5 87 C74.49257338 81.66890182 69.51116105 76.31565198 64.55859375 70.93359375 C60.56436225 66.59852116 56.53563449 62.296524 52.5 58 C47.49259368 52.66888257 42.51116124 47.31565219 37.55859375 41.93359375 C33.56436078 37.59851957 29.53548729 33.29666406 25.5 29 C0 1.83448144 0 1.83448144 0 0 Z " fill="#FFFFFF" transform="translate(190,88)"/>
<path d="M0 0 C2.09091247 -0.00299728 4.18182439 -0.00640111 6.2727356 -0.01017761 C11.91969146 -0.01896387 17.56663215 -0.02135345 23.2135942 -0.0219934 C26.7507739 -0.02270696 30.2879498 -0.02484705 33.82512856 -0.02749062 C46.19120145 -0.03672627 58.55726361 -0.04082774 70.92333984 -0.04003906 C82.40841738 -0.03943876 93.89344787 -0.04998597 105.37851351 -0.06578273 C115.27451871 -0.07890364 125.17050861 -0.08422105 135.06652242 -0.08358365 C140.96122191 -0.08333 146.85587955 -0.08610723 152.7505703 -0.0967617 C158.30009014 -0.10651965 163.84952877 -0.10646969 169.39905167 -0.09924507 C171.42171283 -0.09820873 173.44437925 -0.10050472 175.46703148 -0.10660553 C209.75743244 -0.20323567 238.94500648 6.55868248 264.65161133 30.55151367 C284.4404551 51.30904211 289.16908692 78.81446779 293.07348633 106.14526367 C269.31348633 106.14526367 245.55348633 106.14526367 221.07348633 106.14526367 C218.07348633 97.14526367 218.07348633 97.14526367 217.01098633 93.78198242 C216.70161133 92.80874023 216.39223633 91.83549805 216.07348633 90.83276367 C215.60942383 89.35356445 215.60942383 89.35356445 215.13598633 87.84448242 C214.09052823 85.18855762 212.81094493 83.38125443 211.07348633 81.14526367 C211.07348633 80.48526367 211.07348633 79.82526367 211.07348633 79.14526367 C202.07190073 75.43872842 193.92431715 73.99431691 184.23960876 74.00482178 C183.37370906 74.00185066 182.50780935 73.99887953 181.61567026 73.99581838 C178.72651765 73.98717646 175.83740668 73.98562695 172.94824219 73.98413086 C170.87142855 73.97949944 168.79461576 73.97447434 166.71780396 73.96908569 C161.08316095 73.95598958 155.44852985 73.94952199 149.81387401 73.94507504 C146.28915355 73.94213936 142.76443631 73.93803358 139.23971748 73.93357086 C128.1989846 73.91990229 117.15825912 73.91023292 106.11751837 73.90636897 C93.39657772 73.9018919 80.67574471 73.88435751 67.95483679 73.85536838 C58.1065731 73.83370907 48.2583396 73.8236624 38.41005236 73.82232785 C32.5354867 73.82128273 26.66102232 73.81543742 20.78648186 73.79750824 C15.2550836 73.78095438 9.72386196 73.77890743 4.19244766 73.78764725 C2.17133293 73.78841376 0.15020841 73.78412632 -1.87088203 73.774189 C-22.60006284 73.25676761 -22.60006284 73.25676761 -41.34448242 80.78540039 C-44.81097719 85.95625508 -44.15811541 92.6936265 -43.98999023 98.70410156 C-43.9265348 101.20693028 -43.94873965 103.69867829 -43.98120117 106.2019043 C-43.96806649 107.79895953 -43.95000396 109.39598343 -43.92651367 110.99291992 C-43.93440918 111.73574722 -43.94230469 112.47857452 -43.95043945 113.24391174 C-43.83446402 116.09446263 -43.52945411 118.42986432 -41.65307617 120.65621948 C-34.44025339 126.33898942 -25.26373175 127.59791412 -16.3613739 127.52380371 C-15.45293081 127.52833384 -14.54448771 127.53286397 -13.60851604 127.53753138 C-10.59286474 127.54907123 -7.57766427 127.53954219 -4.56201172 127.5300293 C-2.3877382 127.53413857 -0.21346688 127.53960154 1.96080017 127.54631042 C6.63150314 127.55800888 11.30208803 127.56052899 15.97280312 127.55595398 C23.37672015 127.54911941 30.78048326 127.56505781 38.18437195 127.58435059 C53.91823233 127.62216577 69.65208911 127.63501969 85.38598633 127.64526367 C102.33768073 127.65635773 119.28930353 127.67192704 136.24094933 127.71597624 C143.58113099 127.73420393 150.92113532 127.73827063 158.26133406 127.73104095 C162.85667121 127.72950459 167.45192203 127.74039424 172.04723549 127.75441933 C174.15570752 127.75837708 176.26419658 127.75737524 178.37266159 127.75064659 C212.82813442 127.6492633 242.60384722 134.64946777 268.21801758 159.24291992 C281.80546546 172.775818 289.18761256 189.69344451 289.40267944 208.77566528 C289.40601791 210.57123367 289.40601791 210.57123367 289.40942383 212.40307617 C289.41608063 213.66433319 289.42273743 214.92559021 289.42959595 216.22506714 C289.43968679 218.88611032 289.44528378 221.54674448 289.4440918 224.20776367 C289.44392967 226.90562879 289.45775759 229.60281185 289.48510742 232.30053711 C289.72267293 257.5318448 287.51277129 276.53876659 270.07348633 296.14526367 C269.1859668 297.1565332 269.1859668 297.1565332 268.28051758 298.18823242 C248.6716162 319.13505457 220.61846697 328.40281848 192.54281235 329.41084099 C186.65410288 329.53459936 180.76713526 329.4982883 174.87768555 329.45751953 C172.6394368 329.4533463 170.40118534 329.45046587 168.16293335 329.44876099 C162.1505859 329.44006147 156.1384806 329.41207842 150.12622213 329.37924266 C145.0817601 329.35348873 140.03728496 329.33738051 134.99278462 329.32117754 C122.40611457 329.28057101 109.81961935 329.22127935 97.23307873 329.15303863 C86.35117122 329.09459576 75.46933224 329.05903141 64.58729993 329.03447597 C53.35300949 329.00894645 42.11885988 328.96835456 30.88467038 328.91266161 C24.60161709 328.88162491 18.31867239 328.85604342 12.03554916 328.84507561 C6.12708131 328.83404468 0.21900967 328.80362337 -5.68929672 328.75897598 C-7.84212964 328.74579465 -9.99501503 328.73910897 -12.14788818 328.73983574 C-43.74571533 328.73874959 -69.27906639 320.75461603 -92.04370117 298.03198242 C-109.97861594 278.94560425 -119.92651367 249.20119918 -119.92651367 223.14526367 C-96.16651367 223.14526367 -72.40651367 223.14526367 -47.92651367 223.14526367 C-45.94651367 229.74526367 -43.96651367 236.34526367 -41.92651367 243.14526367 C-35.98026217 251.073599 -33.19486435 253.70305877 -23.92651367 255.14526367 C-20.95168439 255.29119407 -17.98047594 255.28878285 -15.0025177 255.28570557 C-14.10283616 255.28867669 -13.20315462 255.29164781 -12.27621001 255.29470897 C-9.26095349 255.30338179 -6.24573675 255.30490302 -3.23046875 255.30639648 C-1.06864335 255.31102568 1.09318124 255.31605048 3.25500488 255.32144165 C9.12915954 255.33455832 15.00330277 255.34100925 20.87746978 255.34545231 C24.54855169 255.34838436 28.21963049 255.35248943 31.89071083 255.35695648 C43.37994853 255.3706298 54.8691791 255.38029714 66.35842437 255.38415837 C79.61484802 255.38863814 92.87116851 255.40618306 106.12756079 255.43515897 C116.37826599 255.45678615 126.62894219 255.46686322 136.87966996 255.46819949 C143.00005803 255.46924682 149.1203491 255.4751393 155.24071312 255.4930191 C161.00024605 255.50951749 166.75960925 255.5116466 172.51915741 255.5028801 C174.6290285 255.50211066 176.73890878 255.50644005 178.84875679 255.51633835 C181.73756239 255.52909254 184.62576998 255.52316211 187.51457214 255.51275635 C188.3419327 255.52081275 189.16929326 255.52886916 190.02172536 255.53716969 C197.60993394 255.47360313 205.27754041 253.84772373 211.63598633 249.52026367 C212.27665039 249.09487305 212.91731445 248.66948242 213.57739258 248.23120117 C215.04636931 247.2246751 215.04636931 247.2246751 216.07348633 246.14526367 C216.41354569 241.39219488 216.47313795 236.63699645 216.53344727 231.87304688 C216.55999664 230.27150472 216.60085982 228.67013167 216.65649414 227.06933594 C217.28003395 218.07874355 217.28003395 218.07874355 214.62255859 209.78857422 C212.81744623 208.19531704 211.25423388 207.15077641 209.07348633 206.14526367 C208.36450195 205.8176001 207.65551758 205.48993652 206.92504883 205.15234375 C200.11692652 202.23718219 193.20285463 201.99890585 185.90670776 202.01396179 C184.9928097 202.01184608 184.07891163 202.00973036 183.13731968 202.00755054 C180.0794087 202.00156634 177.02153917 202.0025496 173.96362305 202.00341797 C171.76861501 202.00038521 169.57360761 201.99686344 167.37860107 201.9928894 C162.65111089 201.98500555 157.92362824 201.97985726 153.19613266 201.97659874 C145.70463519 201.97067594 138.21318492 201.9541209 130.72171021 201.93525696 C128.15324977 201.92891942 125.5847893 201.9225938 123.01632881 201.91627979 C121.72990998 201.91311398 120.44349114 201.90994817 119.11808991 201.90668643 C112.46601758 201.89066315 105.81394274 201.87598686 99.16186523 201.86230469 C98.49462551 201.86092882 97.82738579 201.85955294 97.13992669 201.85813538 C86.36118895 201.83627153 75.58246296 201.825465 64.80370699 201.81793394 C53.70664574 201.809824 42.60968698 201.78614554 31.51268208 201.74998027 C25.29473252 201.73031091 19.07695709 201.71778445 12.85897446 201.72281456 C6.99671997 201.72749886 1.13479422 201.71345111 -4.7273941 201.68580246 C-6.86368862 201.6789528 -9.00001758 201.67869585 -11.13631058 201.68600273 C-45.00567629 201.79002746 -72.64575927 192.48191831 -97.23120117 168.93823242 C-108.52944576 157.09046232 -115.93708287 140.80777923 -116.10351562 124.37792969 C-116.11635086 123.26559464 -116.1291861 122.15325958 -116.14241028 121.00721741 C-116.14979721 119.81656174 -116.15718414 118.62590607 -116.16479492 117.39916992 C-116.17286667 116.15586411 -116.18093842 114.91255829 -116.18925476 113.63157654 C-116.20306821 110.99984112 -116.21380257 108.368088 -116.22167969 105.73632812 C-116.23049377 103.06630708 -116.2535601 100.39754061 -116.28320312 97.72753906 C-116.54706776 73.93992066 -114.91718046 54.97241237 -98.92651367 36.14526367 C-98.41733398 35.49170898 -97.9081543 34.8381543 -97.38354492 34.16479492 C-81.79910405 14.88626436 -55.63354818 3.46297402 -31.42898083 0.87859631 C-20.954621 -0.04006027 -10.50696598 -0.00302282 0 0 Z " fill="#FFFFFF" transform="translate(2082.926513671875,82.854736328125)"/>
<path d="M0 0 C2.28134833 -0.00435358 4.56269519 -0.00953888 6.84403992 -0.01548767 C13.00945365 -0.02881957 19.17480586 -0.02946281 25.34023118 -0.02692437 C30.50140708 -0.02585068 35.66257074 -0.03074821 40.823744 -0.03552979 C53.70271591 -0.04723692 66.58164877 -0.04641142 79.46062233 -0.03997298 C90.61024639 -0.03480676 101.759783 -0.04605644 112.90938977 -0.0650712 C124.39533597 -0.08450733 135.88123056 -0.09240498 147.36719435 -0.08894795 C153.80063698 -0.08714141 160.23399952 -0.08970822 166.66742897 -0.10366249 C172.72093174 -0.1163027 178.77426039 -0.11423839 184.8277607 -0.1012516 C187.03831798 -0.09889969 189.24888776 -0.10157025 191.45943069 -0.10987473 C219.77162664 -0.2084957 245.88623669 5.69948465 267.29760742 25.2746582 C268.14967773 26.03391602 269.00174805 26.79317383 269.87963867 27.57543945 C291.99102132 48.3282118 296.67976914 76.41316891 301.29760742 105.2746582 C277.20760742 105.2746582 253.11760742 105.2746582 228.29760742 105.2746582 C226.64760742 99.3346582 224.99760742 93.3946582 223.29760742 87.2746582 C220.43659814 81.24334133 218.32657628 78.64388604 212.26245117 75.96606445 C207.29774109 74.21903923 202.6236708 74.12635507 197.39343262 74.12748718 C196.48376598 74.12381049 195.57409934 74.12013381 194.63686705 74.1163457 C191.58171752 74.10531266 188.52660201 74.10146562 185.47143555 74.09765625 C183.28344617 74.0913912 181.09545785 74.08474436 178.9074707 74.07774353 C171.71460715 74.05670175 164.52174338 74.0463395 157.32885742 74.03637695 C154.85143523 74.03232913 152.37401315 74.0282122 149.89659119 74.02402687 C138.92245112 74.00606616 127.94831566 73.99168908 116.9741635 73.98385047 C114.96674376 73.98241204 112.95932402 73.98096066 110.9519043 73.97949219 C110.28741632 73.97900845 109.62292834 73.97852471 108.93830436 73.97802631 C98.18631201 73.96973507 87.43443124 73.94441344 76.68248755 73.91191151 C65.63077831 73.87877732 54.57912852 73.86115584 43.52736998 73.85763389 C37.32750342 73.85528609 31.12781318 73.84636087 24.92799377 73.82117271 C19.09045994 73.79784017 13.25321785 73.79367977 7.41564941 73.8039341 C5.27920052 73.80442834 3.14273702 73.79814103 1.0063324 73.78437805 C-16.46179123 73.58910125 -16.46179123 73.58910125 -32.47184563 79.99872971 C-35.44979838 83.03727034 -35.33065003 84.69900071 -35.33731079 88.91014099 C-35.34511074 89.5756499 -35.3529107 90.2411588 -35.36094701 90.92683464 C-35.3808842 93.15588856 -35.36509817 95.38323827 -35.34936523 97.61230469 C-35.35614075 99.21068315 -35.36504352 100.80905382 -35.37591553 102.40740967 C-35.39872548 106.74847355 -35.38986529 111.08894382 -35.3740201 115.43001819 C-35.3613676 119.97208436 -35.3730996 124.51409945 -35.38095093 129.0561676 C-35.39005033 136.68516165 -35.37805298 144.31391377 -35.35424805 151.94287109 C-35.32704587 160.76239851 -35.33584301 169.58134784 -35.36338007 178.4008612 C-35.38607355 185.97213292 -35.38926979 193.54323064 -35.37618673 201.11452538 C-35.36839224 205.63689114 -35.36735026 210.15898525 -35.38386917 214.68133354 C-35.39831789 218.93411673 -35.38828545 223.18615526 -35.35939789 227.43885803 C-35.35278871 228.99931667 -35.35468198 230.55983802 -35.36571121 232.12027168 C-35.3793871 234.25175632 -35.3622322 236.38085881 -35.33731079 238.51219177 C-35.33542566 239.70440558 -35.33354053 240.8966194 -35.33159828 242.1249609 C-34.50425007 246.26652609 -32.98050399 247.67693224 -29.70239258 250.2746582 C-19.07742853 255.83941206 -6.62496525 254.83434646 4.99365234 254.77636719 C7.16651254 254.78015612 9.33937032 254.78566088 11.51222229 254.79273987 C17.37980927 254.80663418 23.24710105 254.79556813 29.11467147 254.77902865 C35.2705669 254.76512069 41.42644619 254.77164456 47.58235168 254.77516174 C57.91416145 254.77785872 68.24585469 254.76443027 78.57763672 254.74121094 C90.50825329 254.7145834 102.43867539 254.71286279 114.36931151 254.7245993 C125.86977631 254.73539084 137.37017103 254.72918054 148.87063026 254.71504402 C153.75515724 254.70929832 158.63963269 254.70935571 163.52416039 254.71410942 C169.27726576 254.7188937 175.03015904 254.70871734 180.78322411 254.68715477 C182.88986496 254.68160729 184.99652628 254.68110279 187.10316849 254.68610764 C189.98719906 254.69209844 192.87058931 254.67948297 195.75456238 254.66233826 C196.58035693 254.6683483 197.40615148 254.67435835 198.25697011 254.68055052 C205.36720095 254.60412492 212.42024583 253.46395506 218.17260742 249.0871582 C224.31695388 240.95493495 225.55824667 233.54726103 228.29760742 223.2746582 C251.72760742 223.2746582 275.15760742 223.2746582 299.29760742 223.2746582 C296.64619662 256.41729317 290.83375769 283.74949051 265.03198242 306.14575195 C260.07172687 310.0076652 254.76152745 313.1825144 249.29760742 316.2746582 C248.48807617 316.74774414 247.67854492 317.22083008 246.84448242 317.70825195 C241.76581226 320.48079128 236.50332939 322.29378708 230.98510742 323.9621582 C229.99075684 324.26609497 229.99075684 324.26609497 228.97631836 324.57617188 C214.99580541 328.58278229 201.16620502 328.57282765 186.75048828 328.56518555 C184.48548157 328.5711789 182.22047689 328.57798629 179.95547485 328.58554077 C173.83318518 328.60312758 167.71095151 328.60789311 161.58863902 328.60917234 C157.75394222 328.61059887 153.91925942 328.61487798 150.08456612 328.62016678 C137.36902883 328.63769276 124.65353773 328.64701003 111.93799131 328.64550583 C111.25462606 328.64542592 110.5712608 328.64534601 109.8671875 328.64526367 C109.18297199 328.64518191 108.49875647 328.64510015 107.79380716 328.64501591 C96.72122673 328.64420412 85.64878269 328.66332189 74.57624166 328.69154041 C63.16259115 328.72039487 51.74903451 328.73370907 40.33534151 328.73235285 C33.94533548 328.73184561 27.55548391 328.73739656 21.16551018 328.75870895 C15.14807183 328.77823265 9.13093303 328.77812005 3.11348343 328.76367569 C0.92072799 328.76160379 -1.27204692 328.76619025 -3.46476936 328.77839661 C-35.6276878 328.94566347 -63.55241284 320.69453089 -87.38989258 298.0871582 C-104.88928249 279.95647716 -109.01929683 258.61316155 -108.97705078 234.08007812 C-108.98140824 232.38985471 -108.9865948 230.69963326 -108.99253845 229.00941467 C-109.00582908 224.45551381 -109.00651826 219.90169644 -109.00397515 215.34777999 C-109.00289857 211.52867965 -109.00780629 207.70959573 -109.01258057 203.89049894 C-109.02364158 194.87099698 -109.02413253 185.85153669 -109.01806641 176.83203125 C-109.01203024 167.56676376 -109.02433645 158.30164827 -109.04563648 149.0364067 C-109.06332324 141.0452927 -109.0692427 133.05422678 -109.06599873 125.06309396 C-109.06419685 120.30638094 -109.06671144 115.54977635 -109.08071327 110.79308128 C-109.09340273 106.31544767 -109.0912439 101.83804884 -109.07830238 97.36041832 C-109.07596097 95.73038143 -109.07858223 94.10032743 -109.08692551 92.47031021 C-109.18680081 71.41660338 -105.39810392 52.97736152 -91.70239258 36.2746582 C-90.68532227 35.01202148 -90.68532227 35.01202148 -89.64770508 33.72387695 C-77.50862691 19.42822262 -62.03855882 10.92102255 -44.51489258 4.8996582 C-43.82758057 4.66085938 -43.14026855 4.42206055 -42.43212891 4.17602539 C-28.54027363 -0.31959432 -14.42569581 -0.01825209 0 0 Z " fill="#FFFFFF" transform="translate(820.702392578125,82.725341796875)"/>
<path d="M0 0 C8.79587686 6.85707743 14.03887633 17.07840464 19.74023438 26.45849609 C22.18042397 30.45940633 24.67147938 34.42737435 27.16333008 38.39624023 C29.05176222 41.40536707 30.933177 44.41877064 32.8125 47.43359375 C36.56953673 53.45996202 40.33303273 59.48227536 44.09765625 65.50390625 C45.34768551 67.50388796 46.59768551 69.50388797 47.84765625 71.50390625 C48.46640625 72.49390625 49.08515625 73.48390625 49.72265625 74.50390625 C70.34765625 107.50390624 70.34765625 107.50390624 72.22338867 110.50512695 C73.47088872 112.50109453 74.71844713 114.49702564 75.96606445 116.49291992 C79.12979807 121.55431541 82.29245186 126.61638019 85.453125 131.6796875 C91.1478762 140.80054918 96.84813146 149.91744796 102.59765625 159.00390625 C108.99751378 169.11814013 115.33641518 179.27020468 121.67431641 189.42333984 C124.81354848 194.45137112 127.95572776 199.47755966 131.09765625 204.50390625 C132.34767089 206.5038971 133.59767087 208.50389711 134.84765625 210.50390625 C135.46640625 211.49390625 136.08515625 212.48390625 136.72265625 213.50390625 C195.35546875 307.31640625 195.35546875 307.31640625 197.02050781 309.98828125 C198.04953115 311.62962125 199.08756136 313.26535877 200.13574219 314.89453125 C200.5949707 315.61125 201.05419922 316.32796875 201.52734375 317.06640625 C202.1303833 317.99646484 202.1303833 317.99646484 202.74560547 318.9453125 C203.59765625 320.50390625 203.59765625 320.50390625 203.59765625 322.50390625 C192.72395323 322.94578821 181.85240951 323.28250939 170.97153091 323.48833752 C165.9173938 323.58718162 160.8694296 323.7209474 155.81884766 323.93725586 C123.23347881 325.29690752 123.23347881 325.29690752 115.64959717 320.72775269 C111.35293295 316.46165692 109.26683645 311.7059312 107.4866333 305.99664307 C105.65717262 300.86674236 102.2940989 296.49272655 99.24082947 292.02132511 C96.39901548 287.73059841 94.21866783 283.71489275 92.53140259 278.84437561 C89.84886716 272.05212077 86.75894357 266.65068947 80.59765625 262.50390625 C67.73870259 257.81036362 52.01715857 259.44268217 38.58171415 259.64753985 C32.96714075 259.71480146 27.3532016 259.67148308 21.73843384 259.64527893 C12.3139959 259.61904182 2.89339776 259.68308468 -6.53027344 259.80053711 C-17.40385773 259.93487345 -28.26985487 259.92236553 -39.14372313 259.83210796 C-49.63542127 259.74873351 -60.12431305 259.77299407 -70.61600876 259.84459114 C-75.06712005 259.87290269 -79.51572515 259.86336068 -83.9667244 259.82259941 C-89.21513158 259.77916157 -94.45458301 259.83026497 -99.70166588 259.95240593 C-101.61857744 259.98214904 -103.53630417 259.98015003 -105.45308495 259.94292068 C-114.21527074 259.76613658 -114.21527074 259.76613658 -122.40234375 262.50390625 C-127.2769944 267.23934115 -130.3302915 273.23081414 -133.28775477 279.27793038 C-134.73748743 282.17323077 -136.42423186 284.80819154 -138.21484375 287.50390625 C-138.75367187 288.34953125 -139.2925 289.19515625 -139.84765625 290.06640625 C-140.88411458 291.69140625 -141.92057292 293.31640625 -142.95703125 294.94140625 C-143.49585937 295.78703125 -144.0346875 296.63265625 -144.58984375 297.50390625 C-145.20762695 298.38844482 -145.82541016 299.2729834 -146.46191406 300.18432617 C-148.12867767 303.03573342 -149.01239747 305.27854047 -149.99121094 308.38012695 C-152.25571958 314.44119467 -154.715912 319.10950783 -160.40234375 322.50390625 C-172.99295531 326.20542542 -187.70507156 324.36204801 -200.62908936 323.80853271 C-205.67570767 323.61301739 -210.72411198 323.52715619 -215.7734375 323.43164062 C-225.65448225 323.22876078 -235.52750407 322.90519673 -245.40234375 322.50390625 C-244.13878418 320.28590459 -242.87442685 318.06836399 -241.60961914 315.85107422 C-241.07895718 314.91928596 -241.07895718 314.91928596 -240.53757477 313.96867371 C-237.39691797 308.46532822 -234.14714215 303.03375522 -230.83984375 297.62890625 C-229.94712769 296.16553833 -229.94712769 296.16553833 -229.03637695 294.67260742 C-224.15490225 286.68990052 -219.19182536 278.75950662 -214.21826172 270.83398438 C-209.39980067 263.13929176 -204.66655715 255.39518296 -199.96484375 247.62890625 C-188.79497371 229.18173986 -177.49719146 210.81628358 -166.04638672 192.54199219 C-161.46160276 185.21835564 -156.92349422 177.86696958 -152.40234375 170.50390625 C-144.19274788 157.13686004 -135.87833365 143.83684432 -127.54785156 130.54492188 C-120.39052375 119.12181162 -113.26770831 107.6793698 -106.21484375 96.19140625 C-101.16559726 87.96810603 -96.07812989 79.77249715 -90.90942383 71.6237793 C-86.87863253 65.26813247 -82.8866632 58.88877565 -78.90234375 52.50390625 C-73.78956834 44.31162384 -68.65596806 36.13323897 -63.48193359 27.97949219 C-60.95321607 23.98787308 -58.46736959 19.97633762 -56.03588867 15.92480469 C-49.5039914 5.10313805 -43.85703563 -0.93934291 -31.5078125 -5.140625 C-20.42224553 -7.01221423 -9.6093247 -5.98434368 0 0 Z M-21.40234375 99.50390625 C-23.15516591 102.148734 -24.85188756 104.8103231 -26.52734375 107.50390625 C-27.32434692 108.77584839 -27.32434692 108.77584839 -28.13745117 110.07348633 C-29.8958054 112.8815209 -31.64907056 115.69269692 -33.40234375 118.50390625 C-34.60384809 120.42467849 -35.80567379 122.34524973 -37.0078125 124.265625 C-40.16540089 129.31164901 -43.31824164 134.36062345 -46.47021484 139.41015625 C-48.38997147 142.4840956 -50.31180633 145.55672501 -52.234375 148.62890625 C-55.96123414 154.58462014 -59.68334606 160.54328049 -63.40234375 166.50390625 C-64.0360791 167.51904297 -64.66981445 168.53417969 -65.32275391 169.58007812 C-67.1643451 172.53226875 -69.00263729 175.48648543 -70.83984375 178.44140625 C-71.68313232 179.79238403 -71.68313232 179.79238403 -72.54345703 181.1706543 C-73.05247559 181.99090088 -73.56149414 182.81114746 -74.0859375 183.65625 C-74.53509521 184.37804443 -74.98425293 185.09983887 -75.44702148 185.84350586 C-76.48546098 187.32909967 -76.48546098 187.32909967 -76.40234375 188.50390625 C-39.77234375 188.50390625 -3.14234375 188.50390625 34.59765625 188.50390625 C30.63157324 181.23275406 26.64286794 174.24247332 22.16015625 167.31640625 C20.9184489 165.38073535 19.67759269 163.44451823 18.4375 161.5078125 C17.80312012 160.51797363 17.16874023 159.52813477 16.51513672 158.50830078 C13.388058 153.60865338 10.30219754 148.68353118 7.22265625 143.75390625 C6.61131836 142.77542725 5.99998047 141.79694824 5.37011719 140.78881836 C-0.1704729 131.90384972 -5.65702484 122.98576143 -11.12451172 114.05566406 C-15.59952956 106.67287347 -15.59952956 106.67287347 -20.40234375 99.50390625 C-20.73234375 99.50390625 -21.06234375 99.50390625 -21.40234375 99.50390625 Z " fill="#FFFFFF" transform="translate(2632.40234375,88.49609375)"/>
<path d="M0 0 C4.84856811 3.55812234 7.802908 7.22212138 10.9375 12.3125 C11.39930664 13.0439624 11.86111328 13.7754248 12.33691406 14.52905273 C13.90139527 17.01316742 15.45059942 19.50645523 17 22 C18.17240629 23.87027507 19.34561239 25.74004896 20.51953125 27.609375 C23.7096533 32.69591543 26.88671491 37.79049039 30.06054688 42.88720703 C33.20144307 47.92829797 36.35106486 52.9639283 39.5 58 C40.75004391 59.99997255 42.00004387 61.99997258 43.25 64 C43.86875 64.99 44.4875 65.98 45.125 67 C82 126 118.875 185 155.75 244 C156.36866943 244.98983887 156.98733887 245.97967773 157.62475586 246.99951172 C158.87568669 249.00106619 160.12650035 251.00269389 161.37719727 253.00439453 C164.48700269 257.98121596 167.59878331 262.95677968 170.71484375 267.9296875 C175.93270678 276.26116061 181.14582616 284.59485742 186.2890625 292.97265625 C186.6470845 293.55567505 187.00510651 294.13869385 187.37397766 294.73937988 C189.10102036 297.55289585 190.82547728 300.36793236 192.54663086 303.18505859 C195.88833434 308.63873934 199.2931562 314.01052154 202.94897461 319.26000977 C204 321 204 321 204 323 C193.27416015 323.46542543 182.55075315 323.81971521 171.81683826 324.03624344 C166.83070367 324.14023553 161.85151723 324.28091478 156.86938477 324.50878906 C124.81186818 325.93678555 124.81186818 325.93678555 117.00125122 321.1697998 C112.43832288 316.66124017 110.02861163 311.46094205 107.91799927 305.47131348 C106.64456548 302.04314727 104.86003734 299.37794846 102.80078125 296.359375 C101.63609358 294.4907832 100.47324134 292.62104575 99.3125 290.75 C96.70148155 286.55507134 96.70148155 286.55507134 94.04047871 282.39180851 C92.54634194 279.90816298 91.32297702 277.59447754 90.12800121 274.98007107 C86.46251916 267.28641707 86.46251916 267.28641707 80.03415704 262.05799985 C74.28568125 260.51309181 68.37330151 260.7447906 62.46801758 260.81860352 C60.49078608 260.7854213 58.51365712 260.74556292 56.53668213 260.6995697 C51.18598936 260.59703013 45.83987937 260.59615396 40.48842835 260.62027097 C36.01042268 260.63183497 31.53331595 260.59514335 27.05548018 260.55916637 C16.48247649 260.47569261 5.91175584 260.47646412 -4.66137695 260.52954102 C-15.54107173 260.58266273 -26.41296804 260.49311286 -37.29143828 260.33289772 C-46.65537519 260.20013182 -56.01685294 260.15728501 -65.38168603 260.18523926 C-70.9648315 260.20098949 -76.54262376 260.18356688 -82.12492943 260.07916451 C-104.05594207 258.7011697 -104.05594207 258.7011697 -124.26291275 265.20667648 C-129.33132699 270.42068503 -132.20420636 276.21098332 -134.73620033 282.95968437 C-136.92006104 288.21338558 -140.15790346 292.78902239 -143.3125 297.5 C-144.37380558 299.17536852 -145.4328069 300.85220172 -146.48828125 302.53125 C-147.05050888 303.3775145 -147.61273651 304.22377899 -148.19200134 305.09568787 C-149.57173811 307.31205357 -150.71561606 309.42840591 -151.85011292 311.7638092 C-157.03307934 321.7448301 -157.03307934 321.7448301 -161.98243904 323.83868027 C-167.71137465 325.11467731 -173.52963779 324.72237728 -179.3515625 324.46484375 C-181.22048382 324.43682497 -183.08951622 324.41549274 -184.95858765 324.40052795 C-189.85083544 324.3435654 -194.73627613 324.19655611 -199.62585449 324.02996826 C-204.62593474 323.87580811 -209.62712868 323.80786678 -214.62890625 323.73242188 C-224.42224328 323.5721113 -234.21055327 323.31653415 -244 323 C-242.58473939 319.36832358 -240.99522875 316.12230015 -238.98046875 312.78125 C-238.37702637 311.77739258 -237.77358398 310.77353516 -237.15185547 309.73925781 C-236.17949951 308.1358252 -236.17949951 308.1358252 -235.1875 306.5 C-234.18033936 304.8308252 -234.18033936 304.8308252 -233.15283203 303.12792969 C-227.37125805 293.55726101 -221.49779733 284.04390884 -215.58837891 274.55175781 C-212.90813805 270.24590514 -210.23423462 265.93613485 -207.5625 261.625 C-207.0272168 260.76140869 -206.49193359 259.89781738 -205.94042969 259.00805664 C-201.96777034 252.58844359 -198.04082498 246.14189759 -194.125 239.6875 C-188.73717656 230.81004894 -183.26364455 221.98975241 -177.74658203 213.19213867 C-173.12586818 205.81816514 -168.55279263 198.41607669 -164 191 C-158.26199999 181.65476153 -152.47487113 172.34205306 -146.65112305 163.05004883 C-141.99923425 155.61961759 -137.39822294 148.15891552 -132.8125 140.6875 C-127.79136403 132.50775268 -122.72371983 124.36196706 -117.57739258 116.26049805 C-113.32181961 109.54557731 -109.15780396 102.77578909 -105 96 C-99.88896829 87.67255871 -94.74147743 79.37198081 -89.5078125 71.12109375 C-85.47684998 64.76499382 -81.48457073 58.38527207 -77.5 52 C-72.38650576 43.80656579 -67.25742255 35.62357238 -62.07519531 27.47338867 C-59.92287305 24.081461 -57.79487482 20.68366726 -55.76171875 17.21875 C-49.35697014 6.37420477 -43.37657163 -0.62531852 -31.234375 -4.57421875 C-20.48518119 -6.62257911 -9.44293234 -5.71657339 0 0 Z M-20 100 C-25.51892645 106.78702929 -29.79414295 114.56942677 -34.25 122.06640625 C-38.15856666 128.63202808 -42.18297828 135.1125245 -46.28125 141.56103516 C-51.10200273 149.14653954 -55.85853863 156.77136703 -60.61083984 164.39990234 C-64.84434079 171.18431655 -69.15087772 177.9134834 -73.55859375 184.5859375 C-75.17088526 186.81759051 -75.17088526 186.81759051 -75 189 C-38.37 189 -1.74 189 36 189 C31.91544959 181.99791358 27.85863109 175.068689 23.5 168.25 C22.4538926 166.60320399 21.40834685 164.95605109 20.36328125 163.30859375 C19.81752441 162.44862793 19.27176758 161.58866211 18.70947266 160.70263672 C15.68302465 155.91789244 12.68565623 151.11500471 9.6875 146.3125 C9.06431885 145.31428223 8.4411377 144.31606445 7.79907227 143.28759766 C6.52029203 141.23912815 5.24156535 139.19062521 3.96289062 137.14208984 C1.95165981 133.92261962 -0.06280364 130.70519226 -2.078125 127.48828125 C-3.07912231 125.88956177 -3.07912231 125.88956177 -4.1003418 124.25854492 C-5.36673191 122.23613394 -6.63377425 120.21413115 -7.90161133 118.19262695 C-11.29387575 112.77244491 -14.6126175 107.32030843 -17.83374023 101.79638672 C-18.21860596 101.2035791 -18.60347168 100.61077148 -19 100 C-19.33 100 -19.66 100 -20 100 Z " fill="#FFFFFF" transform="translate(1377,88)"/>
<path d="M0 0 C2.14070626 0.00084858 4.28141339 0.00036664 6.42211914 -0.00132751 C12.17088936 -0.00217988 17.91946755 0.01532151 23.66819358 0.03639436 C29.6992618 0.05528915 35.73033558 0.0569216 41.76142883 0.06047058 C53.1541547 0.06975373 64.54679307 0.09431648 75.9394806 0.12451905 C88.92152402 0.15817989 101.90357186 0.17457831 114.88564813 0.18960536 C141.56485684 0.22086978 168.24394578 0.27583465 194.9230957 0.34057617 C194.9230957 24.43057617 194.9230957 48.52057617 194.9230957 73.34057617 C188.4677124 73.34992188 182.0123291 73.35926758 175.36132812 73.36889648 C154.03931807 73.40265462 132.71740447 73.4579963 111.39547253 73.52447891 C98.46725956 73.56426212 85.5391074 73.59665833 72.61083984 73.61157227 C61.34054166 73.62459243 50.07037731 73.65156664 38.80015451 73.69518924 C32.83448012 73.71779558 26.86897076 73.73348733 20.90324974 73.73246002 C15.28321031 73.73171294 9.66353559 73.74968363 4.04359055 73.781744 C1.98576713 73.79023269 -0.07209725 73.79199998 -2.1299305 73.78637886 C-15.81803628 73.75398158 -25.38822196 74.54812128 -37.0769043 82.34057617 C-37.4069043 97.52057617 -37.7369043 112.70057617 -38.0769043 128.34057617 C12.0830957 128.34057617 62.2430957 128.34057617 113.9230957 128.34057617 C113.9230957 152.10057617 113.9230957 175.86057617 113.9230957 200.34057617 C63.7630957 200.34057617 13.6030957 200.34057617 -38.0769043 200.34057617 C-38.0769043 242.58057617 -38.0769043 284.82057617 -38.0769043 328.34057617 C-62.1669043 328.34057617 -86.2569043 328.34057617 -111.0769043 328.34057617 C-111.14312904 296.49258578 -111.19848744 264.6446626 -111.23010029 232.796624 C-111.23385209 229.03059426 -111.23773508 225.26456467 -111.24169922 221.49853516 C-111.24248615 220.74883489 -111.24327308 219.99913462 -111.24408386 219.22671617 C-111.25711246 207.11208972 -111.28075217 194.99750629 -111.30836269 182.8829053 C-111.33648792 170.43800898 -111.35309555 157.99313509 -111.35916978 145.5482083 C-111.36327151 137.87850986 -111.37619274 130.20893305 -111.4006537 122.53927208 C-111.41849283 116.64295522 -111.42025205 110.74669967 -111.41622734 104.85035515 C-111.41704854 102.44264989 -111.42296047 100.03493976 -111.43452072 97.62726212 C-111.55445924 71.34475863 -107.61817356 49.86813225 -88.85424805 30.03198242 C-64.10043985 6.04411484 -33.37866491 -0.18824231 0 0 Z " fill="#FFFFFF" transform="translate(1725.076904296875,82.659423828125)"/>
<path d="M0 0 C9.9 0 19.8 0 30 0 C36.125 11.8125 36.125 11.8125 38.18652344 15.79394531 C41.36340751 21.9285585 44.55098198 28.05695467 47.765625 34.171875 C48.37132324 35.32840576 48.97702148 36.48493652 49.60107422 37.67651367 C50.73887129 39.84828736 51.88076392 42.01792316 53.02783203 44.18481445 C57.80424755 53.32246145 61.78212119 62.50977268 66 72 C66 48.24 66 24.48 66 0 C71.94 0 77.88 0 84 0 C84 29.7 84 59.4 84 90 C74.1 90 64.2 90 54 90 C52.82824219 87.71707031 51.65648437 85.43414063 50.44921875 83.08203125 C49.27792888 80.80135026 48.10633837 78.52082399 46.93469238 76.24032593 C46.10416329 74.62359053 45.27384054 73.00674911 44.44372559 71.38980103 C38.5550461 59.9150007 38.5550461 59.9150007 32.56640625 48.4921875 C32.08018799 47.5746167 31.59396973 46.6570459 31.09301758 45.71166992 C30.24233644 44.11283475 29.38724387 42.51633241 28.52612305 40.9230957 C24.87974774 34.07059588 22.09959212 27.23238162 19 20 C18.67 43.1 18.34 66.2 18 90 C12.06 90 6.12 90 0 90 C0 60.3 0 30.6 0 0 Z " fill="#FFFFFF" transform="translate(1726,486)"/>
<path d="M0 0 C9.57 0 19.14 0 29 0 C34.56509863 9.41785922 39.57152362 19.00909535 44.42138672 28.8137207 C48.00504548 36.0483237 51.69133372 43.21663108 55.52685547 50.32104492 C58.98425206 56.78503694 61.90621638 63.29680216 65 70 C65.33 46.9 65.66 23.8 66 0 C71.94 0 77.88 0 84 0 C84 29.7 84 59.4 84 90 C74.1 90 64.2 90 54 90 C28.03636364 40.74545455 28.03636364 40.74545455 18 19 C17.67 42.43 17.34 65.86 17 90 C11.39 90 5.78 90 0 90 C0 60.3 0 30.6 0 0 Z " fill="#FFFFFF" transform="translate(1915,486)"/>
<path d="M0 0 C4.37519873 4.26006192 5.87145607 8.82496505 6.1171875 14.89453125 C6.12412485 17.59662763 6.06669832 20.29871803 6 23 C0.06 23 -5.88 23 -12 23 C-12.42317708 20.72135417 -12.84635417 18.44270833 -13.26953125 16.1640625 C-13.87544942 13.64179359 -13.87544942 13.64179359 -17 12 C-21.65357844 10.6556329 -26.44411693 10.78008378 -31.25 10.75 C-32.05824219 10.729375 -32.86648438 10.70875 -33.69921875 10.6875 C-39.17206092 10.65247381 -45.37597859 10.79259991 -50 14 C-52.98811315 19.30153182 -53.43477592 23.74835703 -53.36328125 29.75 C-53.36377975 30.56694336 -53.36427826 31.38388672 -53.36479187 32.22558594 C-53.3624637 33.94338427 -53.35280994 35.66118682 -53.33618164 37.37890625 C-53.31256775 39.9925013 -53.31563318 42.60507508 -53.32226562 45.21875 C-53.31668828 46.89583935 -53.30957804 48.57292445 -53.30078125 50.25 C-53.30169266 51.02311523 -53.30260406 51.79623047 -53.30354309 52.59277344 C-53.24126508 57.41236084 -52.66525491 61.45819871 -51 66 C-43.92714572 71.73474671 -33.59617019 70.34384681 -25 70 C-21.25440141 69.52641857 -18.15486554 68.85683572 -15.0625 66.5625 C-12.88772726 63.36430479 -12.74625627 60.06168326 -12.4375 56.3125 C-12.293125 54.559375 -12.14875 52.80625 -12 51 C-19.26 51 -26.52 51 -34 51 C-34 46.38 -34 41.76 -34 37 C-20.8 37 -7.6 37 6 37 C6.061875 41.2075 6.12375 45.415 6.1875 49.75 C6.22846802 51.7005127 6.22846802 51.7005127 6.27026367 53.69042969 C6.33079871 62.30593247 6.07950501 72.26193712 0.875 79.5625 C-7.61303072 86.75887387 -19.54058336 86.21055449 -30.09301758 86.24023438 C-32.16464119 86.24989342 -34.23525101 86.28094724 -36.30664062 86.3125 C-46.3720888 86.39240247 -57.09001539 85.96831978 -65 79 C-77.10607976 63.81667651 -73.95877492 38.16667721 -72 20 C-70.66903721 11.39840464 -68.39153979 4.19760907 -61.32421875 -1.3046875 C-46.87834934 -9.78042244 -13.91537715 -9.18940001 0 0 Z " fill="#FFFFFF" transform="translate(1208,490)"/>
<path d="M0 0 C9.013125 -0.0825 18.02625 -0.165 27.3125 -0.25 C31.54767456 -0.30462402 31.54767456 -0.30462402 35.8684082 -0.36035156 C38.13752485 -0.37204763 40.40664997 -0.38223727 42.67578125 -0.390625 C43.82864624 -0.41108887 44.98151123 -0.43155273 46.16931152 -0.45263672 C54.56380225 -0.45620998 62.89006973 0.50655927 69.5 6.125 C75.05361206 16.76942312 75.84385485 29.52952537 72.76171875 41.13671875 C70.82863695 45.86533423 67.20563968 49.19624021 63 52 C63.928125 52.556875 64.85625 53.11375 65.8125 53.6875 C70.09073791 56.79131966 71.99814558 59.87349565 73 65 C73.08059997 66.9517327 73.10762243 68.90600418 73.09765625 70.859375 C73.09282227 72.53193359 73.09282227 72.53193359 73.08789062 74.23828125 C73.07532227 75.97658203 73.07532227 75.97658203 73.0625 77.75 C73.05798828 78.92433594 73.05347656 80.09867188 73.04882812 81.30859375 C73.03705106 84.20575095 73.01911588 87.10288193 73 90 C67.06 90 61.12 90 55 90 C54.94392578 87.83050781 54.94392578 87.83050781 54.88671875 85.6171875 C54.82103927 83.70309992 54.75459262 81.78903856 54.6875 79.875 C54.65366211 78.44800781 54.65366211 78.44800781 54.61914062 76.9921875 C54.41524537 71.65383903 54.07039237 67.56547654 51 63 C46.50527608 60.00351739 42.35523906 59.87429063 37.04296875 59.68359375 C36.04031982 59.64548584 35.0376709 59.60737793 34.00463867 59.56811523 C32.74498291 59.52501221 31.48532715 59.48190918 30.1875 59.4375 C24.1546875 59.2209375 24.1546875 59.2209375 18 59 C18 69.23 18 79.46 18 90 C12.06 90 6.12 90 0 90 C0 60.3 0 30.6 0 0 Z M18 14 C18 23.9 18 33.8 18 44 C22.32392847 44.06903966 26.6459293 44.12871715 30.9699707 44.16479492 C32.43943782 44.17984066 33.90886034 44.20028238 35.37817383 44.22631836 C37.4957177 44.26288955 39.61266565 44.27976801 41.73046875 44.29296875 C43.00301514 44.3086792 44.27556152 44.32438965 45.58666992 44.34057617 C49.27421291 43.97263951 51.12703113 43.31189107 54 41 C56.90827205 32.82914042 56.68613783 25.19978918 54 17 C49.14154202 13.76102802 44.22419095 13.8751229 38.5078125 13.90234375 C37.4264502 13.90484131 36.34508789 13.90733887 35.23095703 13.90991211 C33.87599121 13.91901611 32.52102539 13.92812012 31.125 13.9375 C24.628125 13.9684375 24.628125 13.9684375 18 14 Z " fill="#FFFFFF" transform="translate(2211,486)"/>
<path d="M0 0 C9.054375 -0.061875 18.10875 -0.12375 27.4375 -0.1875 C30.27915771 -0.21481201 33.12081543 -0.24212402 36.04858398 -0.27026367 C38.32274959 -0.27903264 40.59691994 -0.28667561 42.87109375 -0.29296875 C44.03419067 -0.30831665 45.1972876 -0.32366455 46.39562988 -0.33947754 C53.78826299 -0.34183714 61.07216811 -0.05256917 67.12109375 4.6484375 C67.55550781 5.21820313 67.98992187 5.78796875 68.4375 6.375 C68.88996094 6.93960937 69.34242187 7.50421875 69.80859375 8.0859375 C73.59567907 14.17010736 73.33342794 19.91855232 73.3125 26.875 C73.32861328 27.93847656 73.34472656 29.00195312 73.36132812 30.09765625 C73.36510309 36.17535544 73.01934134 40.67471778 70 46 C67.46455951 48.34528245 64.87204168 50.08530555 62 52 C63.3921875 52.61875 63.3921875 52.61875 64.8125 53.25 C69.02190315 55.56104487 70.49900577 57.49701732 72 62 C72.0833804 64.13794525 72.10733747 66.27842009 72.09765625 68.41796875 C72.09282227 70.29838867 72.09282227 70.29838867 72.08789062 72.21679688 C72.07532227 74.18229492 72.07532227 74.18229492 72.0625 76.1875 C72.05748317 77.52278481 72.05292059 78.85807141 72.04882812 80.19335938 C72.03702704 83.4622588 72.01909136 86.73113502 72 90 C66.39 90 60.78 90 55 90 C54.95101563 88.70964844 54.90203125 87.41929687 54.8515625 86.08984375 C54.77648197 84.37237653 54.70093646 82.65492959 54.625 80.9375 C54.5940625 80.08994141 54.563125 79.24238281 54.53125 78.36914062 C54.2817679 69.56334774 54.2817679 69.56334774 50.1875 62.125 C46.02152633 59.98249926 41.66097852 59.84936846 37.04296875 59.68359375 C36.04031982 59.64548584 35.0376709 59.60737793 34.00463867 59.56811523 C32.74498291 59.52501221 31.48532715 59.48190918 30.1875 59.4375 C24.1546875 59.2209375 24.1546875 59.2209375 18 59 C18 69.23 18 79.46 18 90 C12.06 90 6.12 90 0 90 C0 60.3 0 30.6 0 0 Z M18 14 C18 23.9 18 33.8 18 44 C22.32439848 44.09206289 26.64537132 44.17161666 30.9699707 44.21972656 C32.43948921 44.23978825 33.90892841 44.26704478 35.37817383 44.30175781 C37.49580487 44.35052141 39.61237687 44.37302161 41.73046875 44.390625 C43.00301514 44.41157227 44.27556152 44.43251953 45.58666992 44.45410156 C49.57731488 43.92319536 51.17915793 42.81071513 54 40 C55.6196057 36.7607886 55.22623755 33.24295619 55.25 29.6875 C55.270625 28.92759766 55.29125 28.16769531 55.3125 27.38476562 C55.34410206 22.83801983 55.22825956 19.49728119 52 16 C45.46663842 12.9734497 38.11795226 13.77954761 31.0625 13.875 C26.751875 13.91625 22.44125 13.9575 18 14 Z " fill="#FFFFFF" transform="translate(1228,486)"/>
<path d="M0 0 C1.19818359 -0.00773437 2.39636719 -0.01546875 3.63085938 -0.0234375 C14.82153598 0.00095635 26.82116114 0.34603081 35.375 8.4375 C40.33104167 16.69756945 41.20866507 25.83521003 41.265625 35.31640625 C41.27132507 36.0723558 41.27702515 36.82830536 41.28289795 37.60716248 C41.29229454 39.20139186 41.29886052 40.79564021 41.30273438 42.38989258 C41.31237615 44.78177534 41.34342342 47.17277364 41.375 49.56445312 C41.56395952 76.55732108 41.56395952 76.55732108 32.9375 85.4375 C23.17880053 91.58972358 12.0438791 91.45512254 0.875 91.5 C-1.02088867 91.5309375 -1.02088867 91.5309375 -2.95507812 91.5625 C-13.10645395 91.60451294 -23.68621241 90.68600432 -31.9375 84.25 C-39.0766437 73.87444449 -39.28928277 61.99947329 -39.25317383 49.84814453 C-39.25003505 47.64954977 -39.27347112 45.45233364 -39.29882812 43.25390625 C-39.42577108 14.99268792 -39.42577108 14.99268792 -30.9375 6.25 C-21.93083919 -0.46084531 -10.80377419 -0.0695149 0 0 Z M-17.57519531 18.56274414 C-22.7776849 25.006186 -21.24510195 36.36621667 -21.19824219 44.18188477 C-21.18750101 46.31229998 -21.19820267 48.44187556 -21.2109375 50.57226562 C-21.55147782 62.76364318 -21.55147782 62.76364318 -17.125 73.75 C-11.95246147 77.29688356 -5.09242827 76.46813776 0.9375 76.5 C2.38962891 76.5309375 2.38962891 76.5309375 3.87109375 76.5625 C9.72812089 76.59437498 13.9145472 76.11991486 19.0625 73.25 C24.64220345 66.36836574 23.24871641 56.57193603 23.24780273 48.19262695 C23.24998354 45.95439468 23.26815665 43.71666058 23.28710938 41.47851562 C23.94236901 29.08163567 23.94236901 29.08163567 19.27734375 18.26171875 C10.16332972 14.09852716 -9.17085691 11.82599286 -17.57519531 18.56274414 Z " fill="#FFFFFF" transform="translate(1527.9375,484.75)"/>
<path d="M0 0 C1.21623047 -0.01224609 2.43246094 -0.02449219 3.68554688 -0.03710938 C15.00108802 -0.05533086 26.88021939 0.27675565 35.625 8.3125 C40.54351516 16.6921925 41.45643892 26.48803488 41.515625 36.03515625 C41.52132507 36.76890976 41.52702515 37.50266327 41.53289795 38.25865173 C41.54229221 39.80580226 41.54885958 41.35297229 41.55273438 42.90014648 C41.56237371 45.21961255 41.593422 47.53816549 41.625 49.85742188 C41.817127 76.49156044 41.817127 76.49156044 33.1875 85.375 C23.44702802 91.51573234 12.3364906 91.39254439 1.1875 91.4375 C-0.06804688 91.458125 -1.32359375 91.47875 -2.6171875 91.5 C-12.28655049 91.54012184 -23.45046371 91.19174152 -31.29296875 84.7421875 C-39.7308319 75.33527003 -39.03610413 59.624595 -38.9375 47.8125 C-38.93073242 46.63365234 -38.92396484 45.45480469 -38.91699219 44.24023438 C-38.56731084 14.72062316 -38.56731084 14.72062316 -30.4375 5.6875 C-20.57259798 0.30664435 -11.06764602 0.00577342 0 0 Z M-18.6875 20.1875 C-21.88913105 34.97033967 -23.63071366 55.73810622 -18.6875 70.1875 C-15.96431949 73.8422949 -14.08507982 75.37410932 -9.6875 76.1875 C-5.91989115 76.43485122 -2.14992263 76.41863718 1.625 76.4375 C2.64529297 76.458125 3.66558594 76.47875 4.71679688 76.5 C10.69925057 76.53093706 15.07333264 76.1721948 20.3125 73.1875 C28.90061329 61.45041184 25.13049905 36.13321572 23.140625 22.48046875 C22.0795834 19.54258471 21.03020991 18.69211448 18.3125 17.1875 C7.8198481 14.1501534 -10.15712317 11.65712317 -18.6875 20.1875 Z " fill="#FFFFFF" transform="translate(2334.6875,484.8125)"/>
<path d="M0 0 C8.91 0 17.82 0 27 0 C32.38650033 15.76392988 32.38650033 15.76392988 34.86767578 23.03540039 C35.18614471 23.96870682 35.50461365 24.90201324 35.83273315 25.86360168 C36.49951764 27.81768758 37.16628563 29.77177911 37.83303833 31.72587585 C40.00605507 38.09280402 42.18363127 44.45815583 44.36395264 50.82258606 C45.84291178 55.14135078 47.31938424 59.46096322 48.79541016 63.7807312 C49.515681 65.88683524 50.23703699 67.99256847 50.95947266 70.09793091 C51.97317299 73.05262107 52.98310631 76.00857345 53.9921875 78.96484375 C54.29776581 79.85255463 54.60334412 80.7402655 54.91818237 81.65487671 C55.19381012 82.46478058 55.46943787 83.27468445 55.75341797 84.10913086 C56.11643509 85.16939735 56.11643509 85.16939735 56.48678589 86.25108337 C57 88 57 88 57 90 C50.73 90 44.46 90 38 90 C37.175 87.56625 36.35 85.1325 35.5 82.625 C35.23896484 81.86010254 34.97792969 81.09520508 34.70898438 80.30712891 C33 75.22222222 33 75.22222222 33 73 C20.13 73 7.26 73 -6 73 C-6.66 75.97 -7.32 78.94 -8 82 C-8.99 84.64 -9.98 87.28 -11 90 C-16.94 90 -22.88 90 -29 90 C-27.87507601 82.12553207 -27.87507601 82.12553207 -26.50048828 78.13916016 C-26.19535812 77.24408752 -25.89022797 76.34901489 -25.57585144 75.42681885 C-25.24402359 74.47385925 -24.91219574 73.52089966 -24.5703125 72.5390625 C-24.22370071 71.5271283 -23.87708893 70.51519409 -23.51997375 69.47259521 C-22.3938353 66.18813836 -21.25936714 62.90662284 -20.125 59.625 C-18.96241564 56.23963421 -17.80208298 52.85350216 -16.64189148 49.46731567 C-15.86777865 47.20834835 -15.09296808 44.94962 -14.31745911 42.69113159 C-10.96986464 32.93698395 -7.68633011 23.16242665 -4.4375 13.375 C-3.97477429 11.98258392 -3.5120465 10.59016853 -3.04931641 9.19775391 C-2.0315015 6.1322925 -1.01549681 3.06623011 0 0 Z M13 15 C11.00413669 21.10488242 9.01054215 27.21050222 7.01855469 33.31665039 C6.34004628 35.39559885 5.6610106 37.47437529 4.98144531 39.55297852 C4.00708934 42.53357037 3.03460558 45.5147673 2.0625 48.49609375 C1.75626709 49.43150497 1.45003418 50.3669162 1.13452148 51.33067322 C0.85423096 52.19149002 0.57394043 53.05230682 0.28515625 53.93920898 C0.03644775 54.70087875 -0.21226074 55.46254852 -0.46850586 56.24729919 C-1.04836563 57.8542422 -1.04836563 57.8542422 -1 59 C8.57 59 18.14 59 28 59 C26.22161135 52.4792416 24.46083897 46.08816129 22.30078125 39.70703125 C22.0608696 38.99012619 21.82095795 38.27322113 21.57377625 37.53459167 C20.82288444 35.29292024 20.06778745 33.05269371 19.3125 30.8125 C18.79594187 29.27288107 18.27966381 27.73316815 17.76367188 26.19335938 C16.51233624 22.4611496 15.25723297 18.73022712 14 15 C13.67 15 13.34 15 13 15 Z " fill="#FFFFFF" transform="translate(1849,486)"/>
<path d="M0 0 C12.7771875 -0.12375 12.7771875 -0.12375 25.8125 -0.25 C29.81274292 -0.30462402 29.81274292 -0.30462402 33.89379883 -0.36035156 C36.03986815 -0.37204892 38.18594644 -0.38223825 40.33203125 -0.390625 C41.42012085 -0.41108887 42.50821045 -0.43155273 43.62927246 -0.45263672 C51.30101846 -0.45608741 59.55646894 0.34373063 65.71638489 5.41229248 C72.0358426 12.57251551 72.18034458 21.26089779 72.1875 30.3125 C72.19974609 31.11623047 72.21199219 31.91996094 72.22460938 32.74804688 C72.24438673 40.94246456 71.41591692 48.53098812 66 55 C57.04171676 62.67852849 44.46694157 61.25555139 33.375 61.125 C31.87891227 61.11494608 30.38281797 61.10582451 28.88671875 61.09765625 C25.25751348 61.07756098 21.6292397 61.03838209 18 61 C18 70.57 18 80.14 18 90 C12.06 90 6.12 90 0 90 C0 60.3 0 30.6 0 0 Z M18 15 C18 25.23 18 35.46 18 46 C21.939375 46.061875 25.87875 46.12375 29.9375 46.1875 C31.16073975 46.21481201 32.38397949 46.24212402 33.64428711 46.27026367 C40.05974757 46.31868814 46.29630089 46.27337676 52 43 C54.71564187 39.15969836 54.30058652 34.56964936 54.25 30 C54.25773437 29.30132813 54.26546875 28.60265625 54.2734375 27.8828125 C54.25824171 23.85592773 54.12239331 20.4776565 52 17 C48.00763136 14.92304522 44.62353824 14.76543138 40.16796875 14.8046875 C38.42036255 14.81218018 38.42036255 14.81218018 36.63745117 14.81982422 C35.16896729 14.83803223 33.7004834 14.85624023 32.1875 14.875 C25.1646875 14.936875 25.1646875 14.936875 18 15 Z " fill="#FFFFFF" transform="translate(1409,486)"/>
<path d="M0 0 C4.88058308 4.68065558 6.51236629 11.08845618 6.71875 17.66796875 C6.68619792 20.63020833 6.65364583 23.59244792 6.62109375 26.5546875 C0.68109375 26.5546875 -5.25890625 26.5546875 -11.37890625 26.5546875 C-11.73697917 23.52734375 -12.09505208 20.5 -12.453125 17.47265625 C-13.14861788 14.48867791 -13.14861788 14.48867791 -15.28125 12.69140625 C-19.92952672 10.9856704 -24.34258837 11.12129667 -29.25390625 11.1796875 C-30.22199219 11.16808594 -31.19007813 11.15648437 -32.1875 11.14453125 C-37.96359433 11.16810715 -42.39462217 11.51095136 -47.37890625 14.5546875 C-50.30535148 18.85828343 -49.87981508 24.68595813 -50.06640625 29.7421875 C-50.12501831 31.19637085 -50.12501831 31.19637085 -50.18481445 32.67993164 C-50.39617541 38.96573448 -50.38901214 45.21101764 -50.06640625 51.4921875 C-50.03184326 52.20592529 -49.99728027 52.91966309 -49.96166992 53.6550293 C-49.66619458 58.19519432 -49.13981782 62.3460572 -47.37890625 66.5546875 C-39.46961776 72.11536631 -28.06137033 71.01411854 -18.94140625 69.6171875 C-17.08413054 69.27970419 -15.22848362 68.93208862 -13.37890625 68.5546875 C-11.61447164 63.02612571 -11.0422171 58.52448516 -10.37890625 52.5546875 C-4.10890625 52.5546875 2.16109375 52.5546875 8.62109375 52.5546875 C8.89230907 61.91161605 8.8892168 71.90214581 3.3671875 79.8984375 C-4.68532025 87.5366104 -18.3384065 86.73606949 -28.62890625 86.7421875 C-30.23185547 86.76055664 -30.23185547 86.76055664 -31.8671875 86.77929688 C-41.61474117 86.79706277 -52.14879913 86.38597193 -60.37890625 80.5546875 C-69.7851276 70.64002175 -68.58233061 50.95110785 -68.61914062 38.21484375 C-68.62885826 36.18968788 -68.65999692 34.16554498 -68.69140625 32.140625 C-68.73243057 21.67942396 -68.31658901 10.50502349 -61.2109375 2.171875 C-48.34614394 -9.18425407 -13.46305639 -9.46052611 0 0 Z " fill="#FFFFFF" transform="translate(2080.37890625,490.4453125)"/>
<path d="M0 0 C5.61 0 11.22 0 17 0 C17.01981934 1.8665625 17.03963867 3.733125 17.06005859 5.65625 C17.12803126 11.84696005 17.20482126 18.03751251 17.28752708 24.2280426 C17.33731666 27.97865147 17.38364705 31.72923453 17.421875 35.47998047 C17.45894836 39.10463229 17.5053656 42.7290585 17.55806351 46.35351562 C17.57649106 47.73124199 17.59164122 49.10901651 17.60334396 50.48681641 C17.62225942 60.926138 17.62225942 60.926138 20 71 C25.37120876 74.54583703 30.71161193 74.42982067 37 74.3125 C37.86367187 74.31572266 38.72734375 74.31894531 39.6171875 74.32226562 C44.73629129 74.27947676 49.26657035 74.04005887 54 72 C56.10088138 68.11170286 56.2694976 64.64946273 56.31884766 60.28198242 C56.33391609 59.30065338 56.33391609 59.30065338 56.34928894 58.29949951 C56.3800145 56.15149765 56.39712596 54.00361981 56.4140625 51.85546875 C56.43278275 50.3604476 56.45235681 48.86543692 56.4727478 47.37043762 C56.52398463 43.44636214 56.56365535 39.52225244 56.60089111 35.59802246 C56.64098391 31.58935132 56.69205213 27.58082151 56.7421875 23.57226562 C56.83884676 15.71493336 56.92226825 7.85754233 57 0 C62.94 0 68.88 0 75 0 C75.04546934 7.98966323 75.08204039 15.97922318 75.10362434 23.96898174 C75.11399175 27.68029842 75.12801946 31.39152078 75.15087891 35.1027832 C75.17286208 38.69490782 75.18462133 42.28694263 75.18975449 45.87912941 C75.19516258 47.89338268 75.21073301 49.90760062 75.22659302 51.92179871 C75.22946306 75.86685406 75.22946306 75.86685406 68 84 C60.06364363 90.85412596 49.67396348 90.34779064 39.7355957 90.31567383 C37.7014357 90.3125216 35.6687461 90.33601702 33.63476562 90.36132812 C24.23421085 90.36592048 13.76666966 90.2747589 5.9375 84.375 C-1.60056089 76.50991248 -0.39775191 65.50802924 -0.29296875 55.37109375 C-0.28736409 53.76970316 -0.28309811 52.16830739 -0.28010559 50.56690979 C-0.2687252 46.37964335 -0.23931786 42.19269581 -0.20599365 38.0055542 C-0.17514484 33.72184562 -0.1615688 29.43808484 -0.14648438 25.15429688 C-0.11444053 16.76936957 -0.06172947 8.38476136 0 0 Z " fill="#FFFFFF" transform="translate(1317,486)"/>
<path d="M0 0 C20.13 0 40.26 0 61 0 C61 4.95 61 9.9 61 15 C46.48 15 31.96 15 17 15 C17 22.26 17 29.52 17 37 C30.86 37 44.72 37 59 37 C59 41.29 59 45.58 59 50 C45.14 50 31.28 50 17 50 C17 58.25 17 66.5 17 75 C31.85 75 46.7 75 62 75 C62 79.95 62 84.9 62 90 C41.54 90 21.08 90 0 90 C0 60.3 0 30.6 0 0 Z " fill="#FFFFFF" transform="translate(2135,486)"/>
<path d="M0 0 C19.8 0 39.6 0 60 0 C60 4.95 60 9.9 60 15 C46.14 15 32.28 15 18 15 C18 22.59 18 30.18 18 38 C30.87 38 43.74 38 57 38 C57 42.95 57 47.9 57 53 C44.13 53 31.26 53 18 53 C18.03960217 64.80263503 18.03960217 64.80263503 18.09008789 76.60522461 C18.09300709 78.07926359 18.09555564 79.55330337 18.09765625 81.02734375 C18.10277222 81.79953247 18.10788818 82.57172119 18.11315918 83.36730957 C18.11346974 85.24525187 18.06233569 87.12309253 18 89 C17.67 89.33 17.34 89.66 17 90 C11.39 90 5.78 90 0 90 C0 60.3 0 30.6 0 0 Z " fill="#FFFFFF" transform="translate(1619,486)"/>
<path d="M0 0 C5.94 0 11.88 0 18 0 C18 29.7 18 59.4 18 90 C12.06 90 6.12 90 0 90 C0 60.3 0 30.6 0 0 Z " fill="#FFFFFF" transform="translate(2101,486)"/>
<path d="M0 0 C5.94 0 11.88 0 18 0 C18 29.7 18 59.4 18 90 C12.06 90 6.12 90 0 90 C0 60.3 0 30.6 0 0 Z " fill="#FFFFFF" transform="translate(1691,486)"/>
<path d="" fill="#FFFFFF" transform="translate(0,0)"/>
</svg>
